<svg xmlns="http://www.w3.org/2000/svg" width="17.666" height="22.314" viewBox="0 0 17.666 22.314">
  <g id="clipboard" transform="translate(-53.333)">
    <path id="Path_11654" data-name="Path 11654" d="M86.753,85.333h1.86a1.859,1.859,0,0,1,1.86,1.86v13.946a1.859,1.859,0,0,1-1.86,1.86H76.526a1.859,1.859,0,0,1-1.86-1.86V87.193a1.859,1.859,0,0,1,1.86-1.86h1.86" transform="translate(-20.403 -81.614)" fill="#fff"/>
    <path id="Path_11655" data-name="Path 11655" d="M68.209,83.525H56.122a2.793,2.793,0,0,1-2.789-2.789V66.789A2.793,2.793,0,0,1,56.122,64h1.86a.93.93,0,0,1,0,1.86h-1.86a.931.931,0,0,0-.93.93V80.736a.931.931,0,0,0,.93.93H68.209a.93.93,0,0,0,.93-.93V66.789a.931.931,0,0,0-.93-.93H66.35a.93.93,0,0,1,0-1.86h1.86A2.793,2.793,0,0,1,71,66.789V80.736A2.793,2.793,0,0,1,68.209,83.525Z" transform="translate(0 -61.211)" fill="#fff"/>
    <path id="Path_11656" data-name="Path 11656" d="M162.324,21.333h3.719a2.324,2.324,0,0,1,2.324,2.324h0a2.324,2.324,0,0,1-2.324,2.324h-3.719A2.324,2.324,0,0,1,160,23.657h0A2.324,2.324,0,0,1,162.324,21.333Z" transform="translate(-102.018 -20.403)" fill="#3184fc"/>
    <g id="Group_16034" data-name="Group 16034" transform="translate(57.052)">
      <path id="Path_11657" data-name="Path 11657" d="M145.64,6.508h-3.719a3.254,3.254,0,0,1,0-6.508h3.719a3.254,3.254,0,1,1,0,6.508ZM141.921,1.86a1.395,1.395,0,0,0,0,2.789h3.719a1.395,1.395,0,1,0,0-2.789Z" transform="translate(-138.667)" fill="#fff"/>
      <path id="Path_11658" data-name="Path 11658" d="M147.965,215.193H139.6a.93.93,0,1,1,0-1.859h8.368a.93.93,0,1,1,0,1.859Z" transform="translate(-138.667 -204.246)" fill="#3184fc"/>
      <path id="Path_11659" data-name="Path 11659" d="M147.965,321.86H139.6a.93.93,0,0,1,0-1.86h8.368a.93.93,0,0,1,0,1.86Z" transform="translate(-138.667 -306.368)" fill="#3184fc"/>
    </g>
  </g>
</svg>
