<svg xmlns="http://www.w3.org/2000/svg" width="56" height="61.226" viewBox="0 0 56 61.226">
  <g id="Group_16191" data-name="Group 16191" transform="translate(-108.5 -92)">
    <text id="Smart_claim" data-name="Smart claim" transform="translate(136.5 150.226)" fill="#fff" font-size="8" font-family="Poppins-SemiBold, Poppins" font-weight="600"><tspan x="-27.2" y="0">SMART CLAIM</tspan></text>
    <g id="Solid" transform="translate(114.152 92)">
      <path id="Path_11752" data-name="Path 11752" d="M14.327,30.428c.132-.084.276-.168.437-.253A19.7,19.7,0,0,1,13.725,23.9V12.09a.745.745,0,0,1,.648-.738,33.423,33.423,0,0,0,11.662-3.8.745.745,0,0,1,.712,0,33.432,33.432,0,0,0,11.662,3.8.745.745,0,0,1,.647.738V23.9a19.781,19.781,0,0,1-2.824,10.157l.583.318,3.246.5A23.469,23.469,0,0,0,42.782,23.9V7.911A29.853,29.853,0,0,1,26.746,3.224L26.391,3l-.355.224A29.851,29.851,0,0,1,10,7.911V23.9a23.489,23.489,0,0,0,1.464,8.166Z" transform="translate(-4.043 -3)" fill="#fff"/>
      <path id="Path_11753" data-name="Path 11753" d="M28.176,11.119A34.9,34.9,0,0,1,17,14.8V25.969a18.228,18.228,0,0,0,.94,5.746,22.277,22.277,0,0,1,5.788-.568,18.929,18.929,0,0,1,8.1,1.6l4.881,2.664a18.3,18.3,0,0,0,2.644-9.443V14.8a34.912,34.912,0,0,1-11.176-3.686Zm0,15.429-1.927,1.927a1.49,1.49,0,0,1-2.107,0L19.98,24.313l2.235-2.235,2.98,2.98,2.98-2.98,5.96-5.96,2.235,2.235Z" transform="translate(-5.828 -5.07)" fill="#fff"/>
      <circle id="Ellipse_1277" data-name="Ellipse 1277" cx="2.832" cy="2.832" r="2.832" transform="translate(6.099 37.464)" fill="#fff"/>
      <path id="Path_11754" data-name="Path 11754" d="M46.525,49.885l-.589-1.915a.752.752,0,0,0-.052-.112,2.533,2.533,0,0,0-2.041-1.147l-9.477-1.46a.356.356,0,0,1-.134-.045L27.3,41.421A17.517,17.517,0,0,0,19.9,40c-5.037,0-6.325.8-6.877,1.155L8.886,43.522a1.506,1.506,0,0,1-.76.2H5.756c-1.527,0-2.608,1.036-2.958,2.8l-.752,3.01A2.325,2.325,0,0,0,2.582,51.5a3.231,3.231,0,0,0,2.429,1.162h1.46a4.47,4.47,0,1,1,8.941,0H32.548a4.47,4.47,0,0,1,8.941,0h3.248a1.967,1.967,0,0,0,1.788-2.779ZM19.16,44.759c-2.854-.156-5.729-.373-8.27-.671l2.928-1.676c.38-.238,1.363-.849,5.342-.916Zm1.49.082V41.5a15.317,15.317,0,0,1,5.931,1.229l4.478,2.444C28.406,45.131,24.614,45.042,20.65,44.841Z" transform="translate(-2.005 -12.431)" fill="#fff"/>
      <circle id="Ellipse_1278" data-name="Ellipse 1278" cx="2.832" cy="2.832" r="2.832" transform="translate(32.237 37.464)" fill="#fff"/>
    </g>
  </g>
</svg>
