<svg xmlns="http://www.w3.org/2000/svg" width="34.682" height="26.97" viewBox="0 0 34.682 26.97">
  <path id="Icon_awesome-home" data-name="Icon awesome-home" d="M16.88,9.25,5.78,18.393V28.26a.963.963,0,0,0,.963.963l6.747-.017a.963.963,0,0,0,.959-.963V22.48a.963.963,0,0,1,.963-.963h3.853a.963.963,0,0,1,.963.963v5.758a.963.963,0,0,0,.963.966l6.744.019a.963.963,0,0,0,.963-.963V18.386L17.8,9.25A.734.734,0,0,0,16.88,9.25Zm17.534,6.214-5.033-4.149V2.976a.722.722,0,0,0-.722-.722H25.287a.722.722,0,0,0-.722.722V7.348l-5.39-4.435a2.89,2.89,0,0,0-3.673,0L.261,15.464a.722.722,0,0,0-.1,1.018L1.7,18.348a.722.722,0,0,0,1.018.1L16.88,6.782a.734.734,0,0,1,.921,0L31.964,18.446a.722.722,0,0,0,1.018-.1l1.535-1.866a.723.723,0,0,0-.1-1.019Z" transform="translate(0.001 -2.254)" fill="#fff"/>
</svg>
