<svg id="Icon_Button" data-name="Icon Button" xmlns="http://www.w3.org/2000/svg" width="36" height="36" viewBox="0 0 36 36">
  <circle id="_Background" data-name="🌈 Background" cx="18" cy="18" r="18" fill="#4eb862"/>
  <g id="_Icon" data-name="🔣 Icon" transform="translate(6.237 6.179)">
    <path id="Shape" d="M0,0H24V23H0Z" fill="none"/>
    <path id="Color" d="M17.01,11.692a12.06,12.06,0,0,1-3.53-.529,1.018,1.018,0,0,0-1.01.227L10.9,13.251A14.8,14.8,0,0,1,4.01,6.8L5.96,5.232a.926.926,0,0,0,.24-.963A10,10,0,0,1,5.64.935.972.972,0,0,0,4.65,0H1.19C.65,0,0,.227,0,.935,0,9.709,7.73,17,17.01,17A1.009,1.009,0,0,0,18,15.886V12.627A.972.972,0,0,0,17.01,11.692Z" transform="translate(3 3)" fill="#fff"/>
  </g>
</svg>
