<svg id="Settings" xmlns="http://www.w3.org/2000/svg" width="36" height="36" viewBox="0 0 36 36">
  <g id="_Icon" data-name="🔣 Icon">
    <path id="Shape" d="M0,0H36V36H0Z" fill="none"/>
    <path id="Color" d="M17.6,28.5h-6a.721.721,0,0,1-.734-.6l-.571-3.777a11.152,11.152,0,0,1-2.534-1.4L4.02,24.153a.8.8,0,0,1-.261.043A.749.749,0,0,1,3.1,23.84l-3-4.931A.7.7,0,0,1,.284,18L3.45,15.646a10.5,10.5,0,0,1-.105-1.4,10.49,10.49,0,0,1,.105-1.4L.284,10.5A.677.677,0,0,1,.1,9.591l3-4.931A.74.74,0,0,1,3.746,4.3a.783.783,0,0,1,.273.049L7.755,5.771a11.614,11.614,0,0,1,2.534-1.4L10.86.6a.721.721,0,0,1,.734-.6h6a.721.721,0,0,1,.734.6l.57,3.776a11.219,11.219,0,0,1,2.535,1.4L25.17,4.346a.794.794,0,0,1,.261-.043.745.745,0,0,1,.653.356l3,4.931a.7.7,0,0,1-.181.912L25.74,12.853a10.79,10.79,0,0,1,.105,1.4,10.739,10.739,0,0,1-.105,1.4L28.9,18a.7.7,0,0,1,.181.912l-3,4.931a.737.737,0,0,1-.641.362.778.778,0,0,1-.273-.049l-3.735-1.425a11.581,11.581,0,0,1-2.535,1.4L18.33,27.9A.721.721,0,0,1,17.6,28.5Zm-3-19.237a5.13,5.13,0,0,0-5.25,4.988,5.13,5.13,0,0,0,5.25,4.988,5.13,5.13,0,0,0,5.25-4.988A5.13,5.13,0,0,0,14.594,9.262Z" transform="translate(3.405 3)" fill="rgba(255,255,255,0.62)"/>
  </g>
</svg>
